<svg width="21" height="20" viewBox="0 0 21 20" fill="none" xmlns="http://www.w3.org/2000/svg">
<g clip-path="url(#clip0_6_7)">
<path d="M8.82291 0C3.95809 0 0 3.95121 0 8.80758C0 13.6642 3.95809 17.6152 8.82291 17.6152C13.688 17.6152 17.6458 13.6642 17.6458 8.80758C17.6458 3.95121 13.688 0 8.82291 0ZM8.82291 15.9892C4.85613 15.9892 1.62885 12.7675 1.62885 8.80762C1.62885 4.84773 4.85613 1.62602 8.82291 1.62602C12.7897 1.62602 16.017 4.84769 16.017 8.80758C16.017 12.7675 12.7897 15.9892 8.82291 15.9892Z" fill="#222222"/>
<path d="M19.7962 18.6122L15.1268 13.9509C14.8086 13.6333 14.2934 13.6333 13.9752 13.9509C13.657 14.2683 13.657 14.7832 13.9752 15.1005L18.6446 19.7618C18.8036 19.9206 19.0119 20 19.2204 20C19.4286 20 19.6371 19.9206 19.7962 19.7618C20.1143 19.4444 20.1143 18.9295 19.7962 18.6122Z" fill="#222222"/>
</g>
<defs>
<clipPath id="clip0_6_7">
<rect width="20.0348" height="20" fill="white"/>
</clipPath>
</defs>
</svg>
