<svg width="21" height="20" viewBox="0 0 21 20" fill="none" xmlns="http://www.w3.org/2000/svg">
<g clip-path="url(#clip0_6_54)">
<path d="M18.4252 3.30806C16.2463 1.13349 12.7016 1.13349 10.5232 3.30806L10.0172 3.81285L9.51156 3.30806C7.33321 1.13319 3.78822 1.13319 1.60986 3.30806C-0.524272 5.43848 -0.53813 8.81543 1.57772 11.1634C3.50752 13.3041 9.19902 17.929 9.44051 18.1248C9.60444 18.2578 9.8017 18.3226 9.99777 18.3226C10.0043 18.3226 10.0107 18.3226 10.0169 18.3223C10.2198 18.3317 10.4241 18.2622 10.5934 18.1248C10.8349 17.929 16.5269 13.3041 18.4573 11.1631C20.5729 8.81543 20.559 5.43848 18.4252 3.30806ZM17.1423 9.98189C15.6377 11.6505 11.5018 15.0919 10.0169 16.3131C8.53207 15.0922 4.39708 11.6511 2.89275 9.98218C1.41673 8.34448 1.40287 6.01215 2.86062 4.55694C3.60511 3.81403 4.58284 3.44228 5.56056 3.44228C6.53829 3.44228 7.51601 3.81373 8.26051 4.55694L9.37269 5.66718C9.50508 5.79934 9.67196 5.87822 9.8471 5.90589C10.1313 5.96682 10.4398 5.88764 10.6609 5.66748L11.7737 4.55694C13.2629 3.07082 15.6854 3.07112 17.1739 4.55694C18.6316 6.01215 18.6177 8.34448 17.1423 9.98189Z" fill="#222222"/>
</g>
<defs>
<clipPath id="clip0_6_54">
<rect width="20.0348" height="20" fill="white"/>
</clipPath>
</defs>
</svg>
